# xmcd
#
# Track frame offsets:
# 150
# 14397
# 30200
# 38732
# 51182
# 64015
# 79580
# 92410
# 106847
# 120352
# 133880
# 147267
# 162547
# 174652
#
# Disc length: 2521 seconds
#
#
# Revision: 0
# Processed by: cddbd v1.5.1PL2 Copyright (c) Steve Scherf et al.
# Submitted via: FreeRIP 2.945 
#
DISCID=ac09d70e
DTITLE=Nenete e Dorinho - Luar do Sertão
DYEAR=1900
DGENRE=Sertanejo
TTITLE0=Goiano valente
TTITLE1=O milagre das rosas
TTITLE2=Vinte anos
TTITLE3=Mil e quinhentas cabeças
TTITLE4=Silêncio
TTITLE5=Alma ferida
TTITLE6=A minha boiada
TTITLE7=Penas de minha alma
TTITLE8=Borboleta
TTITLE9=Recordação
TTITLE10=Meu único amor
TTITLE11=Encruzilhada
TTITLE12=Flor do campo
TTITLE13=Cachoeira de emas
EXTD=
EXTT0=
EXTT1=
EXTT2=
EXTT3=
EXTT4=
EXTT5=
EXTT6=
EXTT7=
EXTT8=
EXTT9=
EXTT10=
EXTT11=
EXTT12=
EXTT13=
PLAYORDER=
